<svg xmlns="http://www.w3.org/2000/svg" viewBox="0 0 288 80" width="288" height="80">
<path d="M48 0L112 0L112 32L96 32L96 16L56 16L40 32L16 32L48 0Z" fill="#bf616a" fill-rule="evenodd" opacity="1" stroke="none"/>
<path d="M96 64L136 64L136 80L104 80L96 72L96 64Z" fill="#bf616a" fill-rule="evenodd" opacity="1" stroke="none"/>
<path d="M120 0L120 32L136 32L136 16L184 16L184 32L176 40L8 40L0 48L0 56L184 56L200 40L200 32L200 0L120 0Z" fill="#bf616a" fill-rule="evenodd" opacity="1" stroke="none"/>
<path d="M191 61L204 48L236 80L210 80L191 61Z" fill="#bf616a" fill-rule="evenodd" opacity="1" stroke="none"/>
<path d="M256 40L208 40L224 56L256 56L256 40Z" fill="#bf616a" fill-rule="evenodd" opacity="1" stroke="none"/>
<path d="M208 0L288 0L288 16L224 16L224 32L208 32L208 0Z" fill="#bf616a" fill-rule="evenodd" opacity="1" stroke="none"/>
</svg>
